<svg xmlns="http://www.w3.org/2000/svg" class="iww-logo{% if include.class %} {{ include.class }}{% endif %}"{% if include.color %} style="--color: {{ include.color }};"{% endif %} viewBox="0 0 371.51 371.51">
  <title>IWW Logo</title>
  <g id="circumference">
    <circle class="circumference outer" cx="185.76" cy="185.76" r="185.76"/>
    <circle class="circumference inner" cx="185.76" cy="185.76" r="168.67"/>
  </g>
  <g id="stars">
    <polygon class="star" points="246.09 48.79 252.01 62.24 266.63 63.72 255.67 73.51 258.78 87.86 246.09 80.47 233.39 87.86 236.5 73.51 225.54 63.72 240.16 62.24 246.09 48.79"/>
    <polygon class="star" points="125.43 48.79 131.35 62.24 145.97 63.72 135.01 73.51 138.12 87.86 125.43 80.47 112.73 87.86 115.84 73.51 104.89 63.72 119.5 62.24 125.43 48.79"/>
    <polygon class="star" points="185.76 120.74 191.68 134.19 206.3 135.67 195.34 145.46 198.45 159.82 185.76 152.42 173.06 159.82 176.17 145.46 165.21 135.67 179.83 134.19 185.76 120.74"/>
  </g>
  <g id="letters">
    <polygon class="letter i" points="185.76 38.59 210.17 38.59 197.67 49.92 197.51 96.92 210.17 109.42 185.76 109.42 161.34 109.42 174.01 96.92 173.84 49.92 161.34 38.59 185.76 38.59"/>
    <polygon class="letter w" points="79.16 132.25 105 152.76 105.67 117.92 135.35 98.46 127.5 112.92 124 170.59 104.58 177.71 91.33 165.32 91.33 185.42 74.67 198.76 53.5 172.92 41.17 173.26 62 149.26 78.71 168.63 79.16 132.25"/>
    <polygon class="letter w" points="292.36 132.25 266.51 152.76 265.85 117.92 236.17 98.46 244.01 112.92 247.51 170.59 266.94 177.71 280.18 165.32 280.18 185.42 296.85 198.76 318.01 172.92 330.35 173.26 309.51 149.26 292.81 168.63 292.36 132.25"/>
  </g>
  <g id="globe">
    <path class="globe edge" d="M367.2,296.2a173.45,173.45,0,0,0-302.39,0" transform="translate(-30.24 -30.24)"/>
    <path class="globe parallel" d="M350.44,271.44c-21.61,33.56-60.61,72.22-134.28,72.22h-.33c-73.67,0-112.67-38.67-134.28-72.22" transform="translate(-30.24 -30.24)"/>
    <path class="globe parallel" d="M325.22,246.47C307.37,273.95,275.52,305,216.14,305h-.27c-59.38,0-91.24-31.05-109.08-58.53" transform="translate(-30.24 -30.24)"/>
    <path class="globe parallel" d="M296.7,227.64c-13.28,19.35-36.88,41-80.6,41h-.2c-43.72,0-67.31-21.68-80.6-41" transform="translate(-30.24 -30.24)"/>
    <path class="globe parallel" d="M255.22,212.19c-9,11.08-21.56,19.54-39.17,19.54h-.13c-17.59,0-30.13-8.45-39.15-19.52" transform="translate(-30.24 -30.24)"/>
    <line class="globe prime-meridian" x1="185.76" y1="201.48" x2="185.76" y2="356.88"/>
    <path class="globe meridian" d="M205.17,230.87c-29.47,44.86-38,98.13-39.38,148.63" transform="translate(-30.24 -30.24)"/>
    <path class="globe meridian" d="M193.33,226.12C156,260,130.07,310.9,119.37,357.25" transform="translate(-30.24 -30.24)"/>
    <path class="globe meridian" d="M183.49,220.45c-49.44,23.18-74.88,57.47-98.09,106.12" transform="translate(-30.24 -30.24)"/>
    <path class="globe meridian" d="M226.83,230.87c29.47,44.86,38,98.13,39.38,148.63" transform="translate(-30.24 -30.24)"/>
    <path class="globe meridian" d="M238.67,226.12c37.33,33.92,63.26,84.79,74,131.13" transform="translate(-30.24 -30.24)"/>
    <path class="globe meridian" d="M248.51,220.45c49.43,23.18,74.88,57.47,98.09,106.11" transform="translate(-30.24 -30.24)"/>
  </g>
</svg>
